<svg xmlns="http://www.w3.org/2000/svg" viewBox="0 0 50 50">
    <path style="line-height:normal;text-indent:0;text-align:start;text-decoration-line:none;text-decoration-style:solid;text-decoration-color:#000;text-transform:none;block-progression:tb;isolation:auto;mix-blend-mode:normal" d="M 10 2 C 8.3550302 2 7 3.3550302 7 5 L 7 45 C 7 46.64497 8.3550302 48 10 48 L 40 48 C 41.64497 48 43 46.64497 43 45 L 43 5 C 43 3.3550302 41.64497 2 40 2 L 10 2 z M 10 4 L 40 4 C 40.56503 4 41 4.4349698 41 5 L 41 45 C 41 45.56503 40.56503 46 40 46 L 10 46 C 9.4349698 46 9 45.56503 9 45 L 9 5 C 9 4.4349698 9.4349698 4 10 4 z M 12 6 L 12 7 L 14 7 L 14 11 C 14 11.55 13.55 12 13 12 C 12.45 12 12 11.55 12 11 L 11 11 C 11 12.103 11.897 13 13 13 C 14.103 13 15 12.103 15 11 L 15 7 L 16 7 L 16 6 L 12 6 z M 36 6 C 36 6 32.999 8.0695781 33 9.5175781 C 33 9.5355781 33.004859 9.5494062 33.005859 9.5664062 C 33.004859 9.5814063 33 9.5963281 33 9.6113281 C 33 10.378328 33.672 11 34.5 11 C 34.985312 11 35.403816 10.776462 35.677734 10.445312 C 35.481879 11.35296 35.193351 12.627903 35 13 L 37 13 C 36.807592 12.631045 36.526515 11.367526 36.332031 10.453125 C 36.606449 10.778529 37.019724 11 37.5 11 C 38.328 11 39 10.378328 39 9.6113281 C 39 9.5953281 38.994141 9.5795 38.994141 9.5625 C 38.994141 9.5435 39 9.5268125 39 9.5078125 C 38.997 8.0598125 36 6 36 6 z M 18 15 A 1.0001 1.0001 0 0 0 17.105469 16.447266 L 19.105469 20.447266 A 1.0001 1.0001 0 0 0 19.271484 20.685547 C 18.485749 21.562728 18 22.709156 18 24 L 18 29 L 17.5 29 C 15.567 29 14 30.567 14 32.5 C 14 34.433 15.567 36 17.5 36 C 17.649 36 17.810563 35.990516 17.976562 35.978516 C 18.043563 35.981516 18.099922 36 18.169922 36 L 19 36 C 22.86 36 26 32.859 26 29 L 26 24.070312 C 26 22.399009 27.339766 21.042483 29.001953 21 L 30.470703 21 L 33.541016 25.611328 L 32.552734 26.105469 A 1.0001 1.0001 0 0 0 32 27 L 32 30.535156 C 31.708844 30.837749 30.507489 32 28 32 A 1.0001 1.0001 0 1 0 28 34 C 31.660256 34 33.751953 31.658203 33.751953 31.658203 A 1.0001 1.0001 0 0 0 34 31 L 34 27.617188 L 35.447266 26.894531 A 1.0001 1.0001 0 0 0 35.832031 25.445312 L 32.15625 19.923828 L 33.894531 16.447266 A 1.0001 1.0001 0 0 0 33 15 L 18 15 z M 19.617188 17 L 31.382812 17 L 30.382812 19 L 29.080078 19 L 23.080078 19 L 20.617188 19 L 19.617188 17 z M 30 23 A 1 1 0 0 0 29 24 A 1 1 0 0 0 30 25 A 1 1 0 0 0 31 24 A 1 1 0 0 0 30 23 z M 13 37 C 13.194047 37.372097 13.482109 38.64704 13.677734 39.554688 C 13.403816 39.223538 12.985312 39 12.5 39 C 11.672 39 11 39.621672 11 40.388672 C 11 40.403672 11.004859 40.418594 11.005859 40.433594 C 11.004859 40.450594 11 40.464422 11 40.482422 C 10.998 41.930422 14 44 14 44 C 14 44 16.997 41.940188 17 40.492188 C 17 40.473187 16.994141 40.4565 16.994141 40.4375 C 16.994141 40.4205 17 40.404672 17 40.388672 C 17 39.621672 16.328 39 15.5 39 C 15.019724 39 14.606449 39.221471 14.332031 39.546875 C 14.526515 38.632703 14.807592 37.369644 15 37 L 13 37 z M 37 37 C 35.897 37 35 37.897 35 39 L 35 43 L 34 43 L 34 44 L 38 44 L 38 43 L 36 43 L 36 39 C 36 38.45 36.45 38 37 38 C 37.55 38 38 38.45 38 39 L 39 39 C 39 37.897 38.103 37 37 37 z" color="#000" font-weight="400" font-family="sans-serif" white-space="normal" overflow="visible"></path>
</svg>
