<svg xmlns="http://www.w3.org/2000/svg" viewBox="0 0 50 50">
    <path style="line-height:normal;text-indent:0;text-align:start;text-decoration-line:none;text-decoration-style:solid;text-decoration-color:#000;text-transform:none;block-progression:tb;isolation:auto;mix-blend-mode:normal" d="M 10 2 C 8.3550302 2 7 3.3550302 7 5 L 7 45 C 7 46.64497 8.3550302 48 10 48 L 40 48 C 41.64497 48 43 46.64497 43 45 L 43 5 C 43 3.3550302 41.64497 2 40 2 L 10 2 z M 10 4 L 40 4 C 40.56503 4 41 4.4349698 41 5 L 41 45 C 41 45.56503 40.56503 46 40 46 L 10 46 C 9.4349698 46 9 45.56503 9 45 L 9 5 C 9 4.4349698 9.4349698 4 10 4 z M 13.5 6 C 12.122 6 11 7.121 11 8.5 L 11 10.5 C 11 11.879 12.122 13 13.5 13 C 13.981799 13 14.428352 12.85633 14.810547 12.619141 L 15.732422 14 L 16.933594 14 L 15.548828 11.923828 C 15.831185 11.519021 16 11.030051 16 10.5 L 16 8.5 C 16 7.121 14.878 6 13.5 6 z M 36 6 C 35.448 6 35 6.448 35 7 C 35 7.5144274 35.26682 8.149653 35.53125 8.6679688 C 35.082137 8.3466344 34.49317 8 34 8 C 33.448 8 33 8.448 33 9 C 33 9.552 33.448 10 34 10 C 34.726233 10 35.368042 9.6672943 35.771484 9.4296875 C 35.625979 10.009826 35.232027 11.553473 35 12 L 37 12 C 36.769575 11.557319 36.388777 10.043146 36.240234 9.4414062 C 36.657235 9.6772258 37.303048 10 38 10 C 38.552 10 39 9.552 39 9 C 39 8.448 38.552 8 38 8 C 37.493233 8 36.938756 8.3075768 36.511719 8.6113281 C 36.757688 8.118865 37 7.5073172 37 7 C 37 6.448 36.552 6 36 6 z M 13.5 7 C 14.325 7 15 7.675 15 8.5 L 15 10.5 C 15 11.325 14.325 12 13.5 12 C 12.675 12 12 11.325 12 10.5 L 12 8.5 C 12 7.675 12.675 7 13.5 7 z M 26.962891 12 A 1.0001 1.0001 0 0 0 26.046875 12.697266 C 26.046875 12.697266 25.919832 13.081708 25.677734 13.449219 C 25.435636 13.81673 25.1941 14 25 14 C 24.1234 14 23.84375 13.464844 23.84375 13.464844 A 1.0001 1.0001 0 0 0 22 14 L 22 18.724609 C 19.277681 19.925354 17.335115 22.567433 16.671875 26.210938 L 16.333984 28.068359 C 16.389984 28.066359 16.442047 28.052734 16.498047 28.052734 C 18.979047 28.052734 20.998047 30.071734 20.998047 32.552734 C 20.998047 33.105734 20.550047 33.552734 19.998047 33.552734 C 19.446047 33.552734 18.998047 33.105734 18.998047 32.552734 C 18.998047 31.173734 17.876047 30.052734 16.498047 30.052734 C 15.296047 30.052734 14.290734 30.905109 14.052734 32.037109 C 14.049734 32.058109 14.047922 32.077656 14.044922 32.097656 C 14.023922 32.209656 14.014766 32.324406 14.009766 32.441406 C 14.004766 33.223406 14.254 33.990859 14.75 34.630859 C 15.416 35.487859 16.4195 36 17.4375 36 L 20 36 C 23.309 36 26 33.309 26 30 L 26 25 C 26 22.432952 27.945994 20.313343 30.439453 20.033203 L 33.607422 25.578125 L 32.552734 26.105469 A 1.0001 1.0001 0 0 0 32 27 L 32 30.158203 C 30.964031 30.283039 28.951494 30.634444 27.292969 32.292969 A 1.0001 1.0001 0 1 0 28.707031 33.707031 C 30.05297 32.361092 33.076172 31.996094 33.076172 31.996094 A 1.0001 1.0001 0 0 0 34 31 L 34 27.617188 L 35.447266 26.894531 A 1.0001 1.0001 0 0 0 35.869141 25.503906 L 32 18.734375 L 32 14 A 1.0001 1.0001 0 0 0 30.15625 13.464844 C 30.15625 13.464844 29.8766 14 29 14 C 28.8059 14 28.564364 13.81673 28.322266 13.449219 C 28.080168 13.081708 27.953125 12.697266 27.953125 12.697266 A 1.0001 1.0001 0 0 0 26.962891 12 z M 27 14.925781 C 27.445121 15.462206 28.057597 16 29 16 C 29.437671 16 29.660223 15.779013 30 15.654297 L 30 18 L 25.511719 18 C 24.991855 18 24.487726 18.045978 24 18.126953 L 24 15.654297 C 24.339777 15.779013 24.562329 16 25 16 C 25.942403 16 26.554879 15.462206 27 14.925781 z M 30 23 A 1 1 0 0 0 29 24 A 1 1 0 0 0 30 25 A 1 1 0 0 0 31 24 A 1 1 0 0 0 30 23 z M 33.066406 36 L 34.451172 38.076172 C 34.168815 38.480979 34 38.969949 34 39.5 L 34 41.5 C 34 42.879 35.122 44 36.5 44 C 37.878 44 39 42.879 39 41.5 L 39 39.5 C 39 38.121 37.878 37 36.5 37 C 36.018201 37 35.571648 37.14367 35.189453 37.380859 L 34.267578 36 L 33.066406 36 z M 13 38 C 13.232027 38.446527 13.625979 39.990174 13.771484 40.570312 C 13.368042 40.332706 12.726233 40 12 40 C 11.448 40 11 40.448 11 41 C 11 41.552 11.448 42 12 42 C 12.49317 42 13.082137 41.653366 13.53125 41.332031 C 13.26682 41.850347 13 42.485573 13 43 C 13 43.552 13.448 44 14 44 C 14.552 44 15 43.552 15 43 C 15 42.492683 14.757688 41.881135 14.511719 41.388672 C 14.938756 41.692423 15.493233 42 16 42 C 16.552 42 17 41.552 17 41 C 17 40.448 16.552 40 16 40 C 15.303048 40 14.657235 40.322774 14.240234 40.558594 C 14.388777 39.956854 14.769575 38.442681 15 38 L 13 38 z M 36.5 38 C 37.325 38 38 38.675 38 39.5 L 38 41.5 C 38 42.325 37.325 43 36.5 43 C 35.675 43 35 42.325 35 41.5 L 35 39.5 C 35 38.675 35.675 38 36.5 38 z" color="#000" font-weight="400" font-family="sans-serif" white-space="normal" overflow="visible"></path>
</svg>
